<svg xmlns="http://www.w3.org/2000/svg" id="Ebene_1" data-name="Ebene 1" width="403" height="85" viewBox="0 0 403 85"><defs><style>
      .cls-1 {
        fill: #060e3e;
      }
    </style></defs><path id="Pfad_398" data-name="Pfad 398" class="cls-1" d="M390.4,2.85A2.23,2.23,0,0,1,392.5.5h7.29a2.23,2.23,0,0,1,2.35,2.09V63.9a2.23,2.23,0,0,1-2.09,2.35h-7.29a2.23,2.23,0,0,1-2.35-2.09V2.85Z"></path><path id="Pfad_400" data-name="Pfad 400" class="cls-1" d="M4.72,29.63h23L43.23,1.45C43.62.88,43.7.5,44.65.5h2.82a.58.58,0,0,1,.48.94L31,31.5,49.83,65.32a.58.58,0,0,1-.1.82.57.57,0,0,1-.37.12H46.54c-.95,0-1.13-.47-1.4-1L27.73,33.85h-23V65.32a1,1,0,0,1-.95,1H1.45a1,1,0,0,1-.95-.94V1.45a1,1,0,0,1,1-.95H3.8a1,1,0,0,1,.93,1V29.63Z"></path><path id="Pfad_401" data-name="Pfad 401" class="cls-1" d="M98.37,53.09c0,8.93-5.17,14.1-14.55,14.1H73.94c-9.39,0-14.55-5.17-14.55-14.1V31.5c0-8.93,5.17-14.1,14.55-14.1H83.8c9.39,0,14.55,5.17,14.55,14.1V53.09ZM94.6,31.5c0-6.57-3.76-10.33-10.8-10.33H73.94c-7,0-10.8,3.76-10.8,10.33V53.09c0,6.57,3.76,10.33,10.8,10.33H83.8c7,0,10.8-3.76,10.8-10.33Z"></path><path id="Pfad_402" data-name="Pfad 402" class="cls-1" d="M146.74,65.32a1,1,0,0,1-1,1h-2c-.19,0-.29-.1-.37-.1a1,1,0,0,1-.47-.84V31.5c0-6.57-3.76-10.33-10.8-10.33H130.3c-7.51,0-12.21,4.69-12.21,11.73V65.3a1,1,0,0,1-1,1h-1.87a1,1,0,0,1-1-1v-46a1,1,0,0,1,1-.95h1.88a1,1,0,0,1,.95.95v5.17h.47s2.35-7,11.74-7h1.87c9.86,0,12.49,7,12.49,7H145s2.63-7,12.49-7h3.29c9.39,0,14.55,5.17,14.55,14.1V65.35a1,1,0,0,1-1,1h-1.87a1,1,0,0,1-1-1V31.5c0-6.57-3.76-10.33-10.8-10.33h-3.29c-7,0-10.8,3.76-10.8,10.33V65.32Z"></path><path id="Pfad_403" data-name="Pfad 403" class="cls-1" d="M196,66.24v16.9a1,1,0,0,1-.95,1h-1.87a1,1,0,0,1-1-1V19.29a1,1,0,0,1,1-.95h1.87a1,1,0,0,1,.95.95v5.17h.47s2.35-7,11.73-7h7c9.39,0,14.55,5.17,14.55,14.1V52.17c0,8.93-5.17,14.08-14.55,14.08Zm0-3.74h19.26c7,0,10.8-3.76,10.8-10.33V31.5c0-6.57-3.76-10.33-10.8-10.33h-7c-7.51,0-12.21,4.69-12.21,11.73V62.5Z"></path><path id="Pfad_404" data-name="Pfad 404" class="cls-1" d="M291.91,50.75H264.68L260,63.9a3,3,0,0,1-2.82,2.35h-8.93c-1.4,0-2-1-1.4-2.35l23.48-61c.56-1.4,1.4-2.35,2.82-2.35h10.33c1.4,0,2.26,1,2.82,2.35L309.77,63.9c.56,1.4,0,2.35-1.4,2.35h-8.93a3,3,0,0,1-2.82-2.35ZM288.15,40l-9.68-25.83h-.37L268.43,40Z"></path><path class="cls-1" d="M382.06,63.9,364.22,31.5l16-28.65c.47-1,.47-2.35-1.4-2.35h-8.46a4,4,0,0,0-3.76,2.35L353.9,26.79H338.38V7.17a2.32,2.32,0,0,0-2.32-2.32h-6.95a2.33,2.33,0,0,0-2.32,2.33V26.79H310.6a2.1,2.1,0,0,0-2,2.17v6.48a2.12,2.12,0,0,0,2.05,2.16h16.18V57.2a2.33,2.33,0,0,0,2.32,2.33h6.95a2.32,2.32,0,0,0,2.32-2.32V37.6h16l14.08,26.3a4,4,0,0,0,3.76,2.35h8.46C382.53,66.24,382.53,64.84,382.06,63.9Z"></path></svg>